<svg xmlns="http://www.w3.org/2000/svg" viewBox="0 0 1024 1024">
  <defs>
    <linearGradient id="border" x1="0%" y1="0%" x2="100%" y2="100%">
      <stop offset="0%" stop-color="#A6D93C"/><stop offset="100%" stop-color="#2C6E16"/>
    </linearGradient>
    <radialGradient id="bg" cx="50%" cy="44%" r="72%">
      <stop offset="0%" stop-color="#4E9A1E"/><stop offset="100%" stop-color="#234E10"/>
    </radialGradient>
  </defs>
  <polygon points="512.0,80.0 886.1,296.0 886.1,728.0 512.0,944.0 137.9,728.0 137.9,296.0" fill="url(#bg)"/>
  <g opacity="0.17" fill="#F7F4E3">
    <rect x="430" y="322" width="3" height="150" rx="1.5" opacity="0.6"/>
    <rect x="591" y="322" width="3" height="150" rx="1.5" opacity="0.6"/>
    <rect x="292" y="334" width="120" height="20" rx="6"/>
    <rect x="452" y="334" width="120" height="20" rx="6"/>
    <rect x="612" y="334" width="120" height="20" rx="6"/>
    <rect x="292" y="372" width="120" height="20" rx="6"/>
    <rect x="452" y="372" width="120" height="20" rx="6"/>
    <rect x="612" y="372" width="120" height="20" rx="6"/>
    <rect x="292" y="410" width="120" height="20" rx="6"/>
    <rect x="452" y="410" width="120" height="20" rx="6"/>
    <rect x="612" y="410" width="120" height="20" rx="6"/>
    <rect x="292" y="448" width="86" height="20" rx="6"/>
    <rect x="452" y="448" width="110" height="20" rx="6"/>
    <rect x="612" y="448" width="72" height="20" rx="6"/>
  </g>
  <text x="512" y="622" text-anchor="middle" font-family="Georgia, 'Times New Roman', serif" font-size="165" font-weight="700" fill="#F7F4E3">lssdoc</text>
</svg>

